<svg fill="#ffffff" width="800px" height="800px" viewBox="0 0 16 16" xmlns="http://www.w3.org/2000/svg">
<path d="M11.9 11.7a2 2 0 0 1-1.4-.6l-2.1-2.1a.4.4 0 0 0-.6 0l-2.1 2.1a2 2 0 0 1-1.4.6h-.4l2.6 2.7c.9.8 2.2.8 3 0l2.7-2.7h-.3zm-7.6-7.4c.5 0 1 .2 1.4.6l2.1 2.1c.2.2.4.2.6 0l2.1-2.1a2 2 0 0 1 1.4-.6h.3L9.5 1.6a2.1 2.1 0 0 0-3 0l-2.7 2.7h.5z"/>
<path d="m14.4 6.5-1.6-1.6h-.9c-.4 0-.7.1-1 .4L8.8 7.4a1 1 0 0 1-1.4 0L5.3 5.3c-.3-.2-.7-.4-1-.4h-1L1.6 6.5c-.8.8-.8 2.2 0 3l1.6 1.6h1c.4 0 .8-.1 1-.4l2.1-2.1c.4-.4 1-.4 1.4 0l2.1 2.1c.3.3.7.4 1 .4h.9l1.6-1.6c.8-.8.8-2.2 0-3z"/>
</svg>